<svg width="397" height="130" viewBox="0 0 397 130" fill="none" xmlns="http://www.w3.org/2000/svg">
<mask id="mask0_1130_155" style="mask-type:luminance" maskUnits="userSpaceOnUse" x="0" y="0" width="100" height="85">
<path d="M0.813721 0H99.2056V84.5355H0.813721V0Z" fill="white"/>
</mask>
<g mask="url(#mask0_1130_155)">
<path d="M53.561 0.210882C40.1998 1.4152 27.3119 9.98974 21.0839 21.7915C15.8883 31.7008 14.77 43.6774 18.1636 53.6283C19.1933 56.7751 21.1254 60.4352 21.6845 60.4352C21.8561 60.4352 24.6075 58.2791 27.7852 55.654C34.8298 49.7934 38.7798 46.8214 44.1082 43.1613C51.7562 37.9472 55.1028 34.1566 57.8127 27.6106C59.9164 22.5685 62.582 20.7176 66.7921 21.3614C68.3782 21.6195 75.4671 24.9799 75.4671 25.4961C75.4671 25.6265 74.609 26.101 73.535 26.5311C68.7657 28.5124 67.7332 31.0542 68.8515 37.9472C70.1829 46.0888 68.6384 51.8662 63.6975 56.8167C57.7269 62.8022 47.6734 65.1776 33.7558 63.9233C21.2582 62.7606 15.199 65.8214 4.0301 78.6998C2.22259 80.7699 0.808131 82.6652 0.93546 82.84C1.32298 83.4866 6.43274 84.2636 9.2229 84.0443C14.2524 83.6614 18.2854 81.2028 23.0547 75.5614C24.3446 74.0518 25.8919 72.2426 26.4926 71.5988L27.5665 70.3917L30.8743 72.9335C36.9307 77.5427 42.6024 80.3426 49.0436 81.805C53.8987 82.9677 62.8283 82.84 67.3845 81.6329C84.8728 76.8961 96.8112 63.0631 98.616 45.4006C100.376 28.3404 91.4413 11.9738 76.1065 4.30668C69.1532 0.813042 61.7183 -0.568873 53.561 0.210882Z" fill="#EDEDED"/>
</g>
<path d="M270.299 35.2749V54.619L271.44 56.6419C272.94 59.1393 274.917 60.3881 278.396 60.9958C283.381 61.8532 285.831 60.3908 286.299 56.3394L286.515 54.1944H284.278C281.186 54.4025 279.296 53.5395 278.695 51.8191C278.393 50.87 278.224 45.4395 278.224 35.1861C278.224 24.3306 278.097 19.6354 277.709 18.8612C277.023 17.396 275.431 16.5747 272.425 16.2306L270.294 15.9281V35.2722L270.299 35.2749Z" fill="#EDEDED"/>
<path d="M215.648 20.8176C214.953 21.2893 213.821 22.4825 213.126 23.4621L211.908 25.2547V52.9846L213.096 55.3239C215.213 59.5362 219.54 61.6174 225.181 61.1068C229.253 60.7239 230.866 59.1089 231.284 55.0242C231.542 52.7709 231.497 52.6016 230.733 52.9013C228.909 53.6228 225.433 54.0918 224.032 53.8337C223.188 53.6617 222 53.0678 221.361 52.5156L220.174 51.5388V34.5091H224.658C228.837 34.5091 229.266 34.4231 230.316 33.4824C231.448 32.4612 232.101 30.2856 231.841 28.493C231.708 27.4691 231.666 27.4691 225.961 27.3414L220.174 27.2138V20.0045H218.563C217.652 20.0045 216.343 20.3875 215.645 20.8148L215.648 20.8176Z" fill="#EDEDED"/>
<path d="M161.511 27.6106C154.422 30.1496 150.771 36.482 151.159 45.6143C151.419 51.8607 153.478 55.9953 157.647 58.884C164.819 63.7957 175.683 61.8116 180.154 54.705C181.574 52.4212 182.39 50.0542 182.863 46.5217C183.979 38.7658 180.5 31.2707 174.357 28.2516C171.133 26.7032 164.99 26.3563 161.511 27.605V27.6106ZM169.674 34.7616C172.81 36.0547 174.399 39.4151 174.399 44.7125C174.399 48.3726 173.452 50.8728 171.434 52.6821C170.147 53.8031 169.588 53.9752 167.484 53.9752C164.307 53.9752 162.33 52.9401 160.999 50.5703C159.02 46.9491 159.061 40.2698 161.168 37.0842C162.972 34.3703 166.496 33.3824 169.677 34.7588L169.674 34.7616Z" fill="#EDEDED"/>
<path d="M244.85 27.5662C238.451 29.9776 234.839 35.3665 234.326 43.2029C233.551 55.1379 242.788 63.3212 254.685 61.3399C260.182 60.3964 262.546 58.071 262.546 53.7171V51.4777L260.099 52.8097C257.949 53.9752 257.091 54.1889 253.611 54.3193C249.528 54.5329 248.028 54.1916 245.664 52.5544C244.72 51.9079 242.788 49.0219 242.788 48.2449C242.788 48.1589 245.584 47.9453 249.016 47.7732C261.049 47.171 264.268 45.187 263.753 38.6825C263.327 33.8125 260.922 30.1968 256.711 28.0851C253.918 26.7059 247.859 26.4451 244.853 27.5662H244.85ZM253.528 34.3314C255.978 35.3665 257.135 38.8546 255.546 40.317C254.472 41.3076 250.948 41.9126 246.611 41.9126C243.046 41.9126 243.001 41.9126 243.001 40.8331C243.001 39.5011 244.078 36.8289 245.064 35.7078C246.783 33.8098 250.688 33.1687 253.525 34.3314H253.528Z" fill="#EDEDED"/>
<path d="M131.464 27.8687C125.363 29.8084 121.411 33.9846 119.819 40.1894C117.801 48.073 121.411 56.1286 128.541 59.6639C130.991 60.8709 131.932 61.0874 135.328 61.2178C139.793 61.4315 141.731 60.957 143.79 59.2337C145.551 57.7658 146.281 55.8289 146.281 52.8569V50.4039L145.293 51.3058C144.131 52.3824 141.725 53.2898 138.846 53.7172C133.477 54.5386 128.879 50.9589 128.021 45.3202C127.379 40.8803 130.213 36.4432 134.551 35.1945C137.858 34.2483 142.157 34.9808 144.903 37.0509L146.279 38.0832V35.4553C146.279 31.6204 144.814 29.3394 141.465 27.9159C139.533 27.1389 133.908 27.0973 131.456 27.8742L131.464 27.8687Z" fill="#EDEDED"/>
<path d="M195.76 27.8465C193.827 28.5791 191.768 30.0859 190.564 31.6815C188.546 34.4397 188.244 36.5487 188.244 47.579C188.244 56.2812 188.33 57.874 188.931 58.7343C189.872 60.069 192.07 60.932 194.472 60.932H196.407L196.449 50.465C196.493 38.5744 196.706 37.1536 198.984 35.6024C200.271 34.7006 200.833 34.6118 203.064 34.7866C204.482 34.9142 205.987 35.1279 206.416 35.3C207.061 35.5608 207.147 35.3 207.147 33.0578C207.147 30.8184 206.976 30.2579 206.073 29.3144C205.514 28.7095 204.523 27.9797 203.922 27.7605C202.461 27.1999 197.393 27.286 195.76 27.8465Z" fill="#EDEDED"/>
<path d="M169.845 71.0771C169.674 71.2048 169.541 71.6793 169.541 72.0678C169.541 72.9336 168.212 74.2239 167.349 74.2239C167.047 74.2239 165.331 73.5302 163.615 72.6727C160.866 71.2936 160.177 71.1187 158.115 71.2936C154.81 71.5988 153.176 73.1888 152.872 76.5077C152.659 79.1799 153.387 80.2538 155.322 80.2538C156.266 80.2538 156.565 79.993 156.866 78.8747C157.555 76.5077 159.014 76.38 162.751 78.2309C166.189 79.9541 168.378 80.2094 170.311 79.2216C173.018 77.798 174.263 74.7844 173.189 72.1982C172.716 71.0355 172.328 70.7747 171.337 70.7747C170.651 70.7747 169.965 70.9023 169.837 71.0771H169.845Z" fill="#EDEDED"/>
<path d="M344.195 91.7587C344.195 102.786 344.366 110.842 344.624 111.744C345.313 114.161 346.816 116.098 348.92 117.302C350.553 118.204 351.411 118.381 354.375 118.381C357.639 118.381 358.026 118.295 359.059 117.216C359.917 116.4 360.26 115.537 360.432 113.903L360.645 111.705H358.411C355.062 111.705 353.387 110.845 352.828 108.822C352.523 107.831 352.355 101.371 352.355 91.8947C352.355 78.4584 352.269 76.4771 351.668 75.5725C350.721 74.2405 348.529 73.3748 346.127 73.3748H344.189V91.767L344.195 91.7587Z" fill="#EDEDED"/>
<path d="M128.688 84.3024C124.696 85.3791 121.173 88.179 119.838 91.3258C119.11 93.135 119.11 97.6582 119.883 99.1261C121.344 101.926 123.835 103.302 129.72 104.423C132.123 104.856 134.575 105.586 135.176 106.019C136.721 107.182 136.806 109.077 135.389 110.409C134.315 111.402 133.93 111.488 130.105 111.488C125.895 111.444 125.549 111.358 120.483 108.772C119.711 108.383 120.137 113.639 120.951 114.977C122.93 118.248 130.232 119.885 136.031 118.423C141.484 116.999 144.236 114.075 144.535 109.291C144.795 105.545 144.363 103.774 142.863 102.012C141.102 100.028 138.738 98.9513 133.67 97.919C131.351 97.4445 128.987 96.7563 128.43 96.4094C126.327 94.9859 127.957 91.8003 131.09 91.1981C134.96 90.4628 138.611 91.2425 143.895 93.9564C144.322 94.1701 144.28 91.0705 143.768 89.214C142.564 84.9101 135.262 82.4932 128.688 84.3052V84.3024Z" fill="#EDEDED"/>
<path d="M158.344 84.258C153.747 85.4651 151.427 87.9181 150.995 92.1C150.868 93.3931 150.868 94.4698 151.037 94.4698C151.209 94.4698 151.981 93.998 152.756 93.3931C155.034 91.6698 157.611 90.8956 161.608 90.8956C164.354 90.8512 165.599 91.0233 166.673 91.5866C168.179 92.4052 169.339 94.5169 169.339 96.4094C169.339 97.4445 169.256 97.4889 166.247 97.4889C162.167 97.4889 158.084 98.1798 155.507 99.2981C149.022 102.098 147.563 110.109 152.634 115.237C155.167 117.776 158.818 119.031 163.714 119.031C169.771 119.031 173.724 117.088 176.046 112.912L177.292 110.628V102.445C177.292 95.6796 177.161 93.8704 176.514 92.0195C175.44 89.0059 172.91 86.2032 170.117 84.9989C167.327 83.789 161.611 83.445 158.347 84.2636L158.344 84.258ZM169.538 106.208C169.538 108.88 169.452 109.138 168.077 110.52C166.787 111.81 166.358 111.985 164.423 111.985C161.804 111.985 159.485 111.125 158.84 109.921C158.026 108.367 158.284 106.213 159.399 105.137C160.73 103.888 162.449 103.458 166.446 103.413L169.538 103.369V106.208Z" fill="#EDEDED"/>
<path d="M193.598 84.5189C186.941 86.6278 183.16 92.0584 182.559 100.289C181.745 111.572 189.047 119.675 199.314 118.9C203.311 118.598 205.116 118.043 207.648 116.272C211.598 113.556 214.092 108.691 214.524 102.786C214.992 96.6703 213.364 91.8447 209.495 87.9237C207.477 85.9424 206.574 85.3375 204.166 84.6105C200.601 83.531 196.82 83.4894 193.598 84.5245V84.5189ZM200.432 91.4562C202.281 91.9696 203.737 93.3071 204.897 95.5465C205.672 96.97 205.796 98.0439 205.841 101.576C205.841 106.313 205.068 108.555 202.832 110.32C200.341 112.304 196.003 111.871 193.769 109.46C191.752 107.307 191.234 105.539 191.234 100.93C191.234 97.5694 191.406 96.5344 192.139 95.1164C194.03 91.6255 196.775 90.374 200.426 91.4562H200.432Z" fill="#EDEDED"/>
<mask id="mask1_1130_155" style="mask-type:luminance" maskUnits="userSpaceOnUse" x="235" y="83" width="33" height="46">
<path d="M235.259 83.1147H267.855V128.762H235.259V83.1147Z" fill="white"/>
</mask>
<g mask="url(#mask1_1130_155)">
<path d="M247.043 84.1609C242.359 85.368 238.963 88.4287 236.989 93.3376C236.043 95.749 235.998 96.3511 235.871 110.398C235.744 123.282 235.829 125.133 236.43 126.035C237.548 127.758 239.649 128.793 241.927 128.793H243.945V114.186L245.797 115.995C249.788 120.002 256.836 119.788 262.034 115.479C266.244 111.988 268.691 102.253 266.978 95.835C265.688 90.9678 262.422 86.8303 258.342 84.8934C255.72 83.6419 250.48 83.2979 247.045 84.1581L247.043 84.1609ZM253.312 91.4562C255.632 92.0999 257.437 94.2561 258.209 97.2696C260.528 106.147 256.49 113.04 249.963 111.275C245.966 110.24 243.566 105.672 243.951 100.028C244.252 95.9349 245.667 93.2626 248.158 91.9723C250.267 90.9372 251.081 90.8512 253.315 91.4589L253.312 91.4562Z" fill="#EDEDED"/>
</g>
<path d="M280.81 84.258C276.212 85.4651 273.893 87.9181 273.466 92.1C273.336 93.3931 273.336 94.4698 273.508 94.4698C273.679 94.4698 274.452 93.998 275.227 93.3931C277.505 91.6698 280.082 90.8956 284.076 90.8956C286.828 90.8512 288.073 91.0233 289.147 91.5866C290.65 92.4052 291.81 94.5169 291.81 96.4094C291.81 97.4445 291.724 97.4889 288.718 97.4889C284.635 97.4889 280.555 98.1798 277.978 99.2981C271.49 102.098 270.031 110.109 275.099 115.237C277.632 117.776 281.286 119.031 286.18 119.031C292.236 119.031 296.192 117.088 298.511 112.912L299.757 110.628V102.445C299.757 95.6796 299.627 93.8704 298.985 92.0195C297.911 89.0059 295.375 86.2032 292.585 84.9989C289.792 83.789 284.076 83.445 280.813 84.2636L280.81 84.258ZM292.004 106.208C292.004 108.88 291.918 109.138 290.545 110.52C289.258 111.81 288.826 111.985 286.894 111.985C284.27 111.985 281.95 111.125 281.311 109.921C280.494 108.367 280.752 106.213 281.87 105.137C283.199 103.888 284.923 103.458 288.915 103.413L292.006 103.369V106.208H292.004Z" fill="#EDEDED"/>
<mask id="mask2_1130_155" style="mask-type:luminance" maskUnits="userSpaceOnUse" x="362" y="83" width="34" height="37">
<path d="M362.81 83.1147H395.658V119.344H362.81V83.1147Z" fill="white"/>
</mask>
<g mask="url(#mask2_1130_155)">
<path d="M374.452 84.5189C367.792 86.6278 364.014 92.0584 363.413 100.289C362.596 111.572 369.898 119.675 380.165 118.9C384.162 118.598 385.967 118.043 388.499 116.272C392.449 113.556 394.946 108.691 395.375 102.786C395.846 96.6703 394.215 91.8447 390.346 87.9237C388.331 85.9424 387.425 85.3375 385.02 84.6105C381.455 83.531 377.671 83.4894 374.452 84.5245V84.5189ZM381.283 91.4562C383.135 91.9696 384.588 93.3071 385.748 95.5465C386.526 96.97 386.65 98.0439 386.692 101.576C386.692 106.313 385.92 108.555 383.686 110.32C381.195 112.304 376.857 111.871 374.621 109.46C372.603 107.307 372.088 105.539 372.088 100.93C372.088 97.5694 372.259 96.5344 372.993 95.1164C374.881 91.6255 377.629 90.374 381.28 91.4562H381.283Z" fill="#EDEDED"/>
</g>
<path d="M306.99 95.7878C306.99 104.792 307.117 107.85 307.632 109.532C309.486 115.778 315.557 119.569 322.92 119.011C329.333 118.537 333.034 116.125 335.019 111.125C335.921 108.758 336.007 107.85 336.14 98.4573C336.267 90.7902 336.181 88.0763 335.752 87.3021C334.805 85.5344 333.039 84.5438 330.498 84.3301L328.173 84.1581L327.999 95.2745C327.825 107.295 327.611 108.372 325.372 110.437C322.834 112.809 318.006 111.561 316.285 108.153C315.465 106.602 315.338 105.439 315.164 96.9117C314.95 88.1207 314.865 87.2632 314.09 86.403C312.924 85.0683 310.818 84.2469 308.709 84.2469H306.984V95.7934L306.99 95.7878Z" fill="#EDEDED"/>
<mask id="mask3_1130_155" style="mask-type:luminance" maskUnits="userSpaceOnUse" x="0" y="0" width="100" height="85">
<path d="M0.813721 0H99.2056V84.5355H0.813721V0Z" fill="white"/>
</mask>
<g mask="url(#mask3_1130_155)">
<path d="M53.561 0.210882C40.1998 1.4152 27.3119 9.98974 21.0839 21.7915C15.8883 31.7008 14.77 43.6774 18.1636 53.6283C19.1933 56.7751 21.1254 60.4352 21.6845 60.4352C21.8561 60.4352 24.6075 58.2791 27.7852 55.654C34.8298 49.7934 38.7798 46.8214 44.1082 43.1613C51.7562 37.9472 55.1028 34.1566 57.8127 27.6106C59.9164 22.5685 62.582 20.7176 66.7921 21.3614C68.3782 21.6195 75.4671 24.9799 75.4671 25.4961C75.4671 25.6265 74.609 26.101 73.535 26.5311C68.7657 28.5124 67.7332 31.0542 68.8515 37.9472C70.1829 46.0888 68.6384 51.8662 63.6975 56.8167C57.7269 62.8022 47.6734 65.1776 33.7558 63.9233C21.2582 62.7606 15.199 65.8214 4.0301 78.6998C2.22259 80.7699 0.808131 82.6652 0.93546 82.84C1.32298 83.4866 6.43274 84.2636 9.2229 84.0443C14.2524 83.6614 18.2854 81.2028 23.0547 75.5614C24.3446 74.0518 25.8919 72.2426 26.4926 71.5988L27.5665 70.3917L30.8743 72.9335C36.9307 77.5427 42.6024 80.3426 49.0436 81.805C53.8987 82.9677 62.8283 82.84 67.3845 81.6329C84.8728 76.8961 96.8112 63.0631 98.616 45.4006C100.376 28.3404 91.4413 11.9738 76.1065 4.30668C69.1532 0.813042 61.7183 -0.568873 53.561 0.210882Z" fill="#EDEDED"/>
</g>
<path d="M270.299 35.2749V54.619L271.44 56.6419C272.94 59.1393 274.917 60.3881 278.396 60.9958C283.381 61.8532 285.831 60.3908 286.299 56.3394L286.515 54.1944H284.278C281.186 54.4025 279.296 53.5395 278.695 51.8191C278.393 50.87 278.224 45.4395 278.224 35.1861C278.224 24.3306 278.097 19.6354 277.709 18.8612C277.023 17.396 275.431 16.5747 272.425 16.2306L270.294 15.9281V35.2722L270.299 35.2749Z" fill="#EDEDED"/>
<path d="M215.648 20.8176C214.953 21.2893 213.821 22.4825 213.126 23.4621L211.908 25.2547V52.9846L213.096 55.3239C215.213 59.5362 219.54 61.6174 225.181 61.1068C229.253 60.7239 230.866 59.1089 231.284 55.0242C231.542 52.7709 231.497 52.6016 230.733 52.9013C228.909 53.6228 225.433 54.0918 224.032 53.8337C223.188 53.6617 222 53.0678 221.361 52.5156L220.174 51.5388V34.5091H224.658C228.837 34.5091 229.266 34.4231 230.316 33.4824C231.448 32.4612 232.101 30.2856 231.841 28.493C231.708 27.4691 231.666 27.4691 225.961 27.3414L220.174 27.2138V20.0045H218.563C217.652 20.0045 216.343 20.3875 215.645 20.8148L215.648 20.8176Z" fill="#EDEDED"/>
<path d="M161.511 27.6106C154.422 30.1496 150.771 36.482 151.159 45.6143C151.419 51.8607 153.478 55.9953 157.647 58.884C164.819 63.7957 175.683 61.8116 180.154 54.705C181.574 52.4212 182.39 50.0542 182.863 46.5217C183.979 38.7658 180.5 31.2707 174.357 28.2516C171.133 26.7032 164.99 26.3563 161.511 27.605V27.6106ZM169.674 34.7616C172.81 36.0547 174.399 39.4151 174.399 44.7125C174.399 48.3726 173.452 50.8728 171.434 52.6821C170.147 53.8031 169.588 53.9752 167.484 53.9752C164.307 53.9752 162.33 52.9401 160.999 50.5703C159.02 46.9491 159.061 40.2698 161.168 37.0842C162.972 34.3703 166.496 33.3824 169.677 34.7588L169.674 34.7616Z" fill="#EDEDED"/>
<path d="M244.85 27.5662C238.451 29.9776 234.839 35.3665 234.326 43.2029C233.551 55.1379 242.788 63.3212 254.685 61.3399C260.182 60.3964 262.546 58.071 262.546 53.7171V51.4777L260.099 52.8097C257.949 53.9752 257.091 54.1889 253.611 54.3193C249.528 54.5329 248.028 54.1916 245.664 52.5544C244.72 51.9079 242.788 49.0219 242.788 48.2449C242.788 48.1589 245.584 47.9453 249.016 47.7732C261.049 47.171 264.268 45.187 263.753 38.6825C263.327 33.8125 260.922 30.1968 256.711 28.0851C253.918 26.7059 247.859 26.4451 244.853 27.5662H244.85ZM253.528 34.3314C255.978 35.3665 257.135 38.8546 255.546 40.317C254.472 41.3076 250.948 41.9126 246.611 41.9126C243.046 41.9126 243.001 41.9126 243.001 40.8331C243.001 39.5011 244.078 36.8289 245.064 35.7078C246.783 33.8098 250.688 33.1687 253.525 34.3314H253.528Z" fill="#EDEDED"/>
<path d="M131.464 27.8687C125.363 29.8084 121.411 33.9846 119.819 40.1894C117.801 48.073 121.411 56.1286 128.541 59.6639C130.991 60.8709 131.932 61.0874 135.328 61.2178C139.793 61.4315 141.731 60.957 143.79 59.2337C145.551 57.7658 146.281 55.8289 146.281 52.8569V50.4039L145.293 51.3058C144.131 52.3824 141.725 53.2898 138.846 53.7172C133.477 54.5386 128.879 50.9589 128.021 45.3202C127.379 40.8803 130.213 36.4432 134.551 35.1945C137.858 34.2483 142.157 34.9808 144.903 37.0509L146.279 38.0832V35.4553C146.279 31.6204 144.814 29.3394 141.465 27.9159C139.533 27.1389 133.908 27.0973 131.456 27.8742L131.464 27.8687Z" fill="#EDEDED"/>
<path d="M195.76 27.8465C193.827 28.5791 191.768 30.0859 190.564 31.6815C188.546 34.4397 188.244 36.5487 188.244 47.579C188.244 56.2812 188.33 57.874 188.931 58.7343C189.872 60.069 192.07 60.932 194.472 60.932H196.407L196.449 50.465C196.493 38.5744 196.706 37.1536 198.984 35.6024C200.271 34.7006 200.833 34.6118 203.064 34.7866C204.482 34.9142 205.987 35.1279 206.416 35.3C207.061 35.5608 207.147 35.3 207.147 33.0578C207.147 30.8184 206.976 30.2579 206.073 29.3144C205.514 28.7095 204.523 27.9797 203.922 27.7605C202.461 27.1999 197.393 27.286 195.76 27.8465Z" fill="#EDEDED"/>
<path d="M169.845 71.0771C169.674 71.2048 169.541 71.6793 169.541 72.0678C169.541 72.9336 168.212 74.2239 167.349 74.2239C167.047 74.2239 165.331 73.5302 163.615 72.6727C160.866 71.2936 160.177 71.1187 158.115 71.2936C154.81 71.5988 153.176 73.1888 152.872 76.5077C152.659 79.1799 153.387 80.2538 155.322 80.2538C156.266 80.2538 156.565 79.993 156.866 78.8747C157.555 76.5077 159.014 76.38 162.751 78.2309C166.189 79.9541 168.378 80.2094 170.311 79.2216C173.018 77.798 174.263 74.7844 173.189 72.1982C172.716 71.0355 172.328 70.7747 171.337 70.7747C170.651 70.7747 169.965 70.9023 169.837 71.0771H169.845Z" fill="#EDEDED"/>
<path d="M344.195 91.7587C344.195 102.786 344.366 110.842 344.624 111.744C345.313 114.161 346.816 116.098 348.92 117.302C350.553 118.204 351.411 118.381 354.375 118.381C357.639 118.381 358.026 118.295 359.059 117.216C359.917 116.4 360.26 115.537 360.432 113.903L360.645 111.705H358.411C355.062 111.705 353.387 110.845 352.828 108.822C352.523 107.831 352.355 101.371 352.355 91.8947C352.355 78.4584 352.269 76.4771 351.668 75.5725C350.721 74.2405 348.529 73.3748 346.127 73.3748H344.189V91.767L344.195 91.7587Z" fill="#EDEDED"/>
<path d="M128.688 84.3024C124.696 85.3791 121.173 88.179 119.838 91.3258C119.11 93.135 119.11 97.6582 119.883 99.1261C121.344 101.926 123.835 103.302 129.72 104.423C132.123 104.856 134.575 105.586 135.176 106.019C136.721 107.182 136.806 109.077 135.389 110.409C134.315 111.402 133.93 111.488 130.105 111.488C125.895 111.444 125.549 111.358 120.483 108.772C119.711 108.383 120.137 113.639 120.951 114.977C122.93 118.248 130.232 119.885 136.031 118.423C141.484 116.999 144.236 114.075 144.535 109.291C144.795 105.545 144.363 103.774 142.863 102.012C141.102 100.028 138.738 98.9513 133.67 97.919C131.351 97.4445 128.987 96.7563 128.43 96.4094C126.327 94.9859 127.957 91.8003 131.09 91.1981C134.96 90.4628 138.611 91.2425 143.895 93.9564C144.322 94.1701 144.28 91.0705 143.768 89.214C142.564 84.9101 135.262 82.4932 128.688 84.3052V84.3024Z" fill="#EDEDED"/>
<path d="M158.344 84.258C153.747 85.4651 151.427 87.9181 150.995 92.1C150.868 93.3931 150.868 94.4698 151.037 94.4698C151.209 94.4698 151.981 93.998 152.756 93.3931C155.034 91.6698 157.611 90.8956 161.608 90.8956C164.354 90.8512 165.599 91.0233 166.673 91.5866C168.179 92.4052 169.339 94.5169 169.339 96.4094C169.339 97.4445 169.256 97.4889 166.247 97.4889C162.167 97.4889 158.084 98.1798 155.507 99.2981C149.022 102.098 147.563 110.109 152.634 115.237C155.167 117.776 158.818 119.031 163.714 119.031C169.771 119.031 173.724 117.088 176.046 112.912L177.292 110.628V102.445C177.292 95.6796 177.161 93.8704 176.514 92.0195C175.44 89.0059 172.91 86.2032 170.117 84.9989C167.327 83.789 161.611 83.445 158.347 84.2636L158.344 84.258ZM169.538 106.208C169.538 108.88 169.452 109.138 168.077 110.52C166.787 111.81 166.358 111.985 164.423 111.985C161.804 111.985 159.485 111.125 158.84 109.921C158.026 108.367 158.284 106.213 159.399 105.137C160.73 103.888 162.449 103.458 166.446 103.413L169.538 103.369V106.208Z" fill="#EDEDED"/>
<path d="M193.598 84.5189C186.941 86.6278 183.16 92.0584 182.559 100.289C181.745 111.572 189.047 119.675 199.314 118.9C203.311 118.598 205.116 118.043 207.648 116.272C211.598 113.556 214.092 108.691 214.524 102.786C214.992 96.6703 213.364 91.8447 209.495 87.9237C207.477 85.9424 206.574 85.3375 204.166 84.6105C200.601 83.531 196.82 83.4894 193.598 84.5245V84.5189ZM200.432 91.4562C202.281 91.9696 203.737 93.3071 204.897 95.5465C205.672 96.97 205.796 98.0439 205.841 101.576C205.841 106.313 205.068 108.555 202.832 110.32C200.341 112.304 196.003 111.871 193.769 109.46C191.752 107.307 191.234 105.539 191.234 100.93C191.234 97.5694 191.406 96.5344 192.139 95.1164C194.03 91.6255 196.775 90.374 200.426 91.4562H200.432Z" fill="#EDEDED"/>
<mask id="mask4_1130_155" style="mask-type:luminance" maskUnits="userSpaceOnUse" x="235" y="83" width="33" height="46">
<path d="M235.259 83.1147H267.855V128.762H235.259V83.1147Z" fill="white"/>
</mask>
<g mask="url(#mask4_1130_155)">
<path d="M247.043 84.1609C242.359 85.368 238.963 88.4287 236.989 93.3376C236.043 95.749 235.998 96.3511 235.871 110.398C235.744 123.282 235.829 125.133 236.43 126.035C237.548 127.758 239.649 128.793 241.927 128.793H243.945V114.186L245.797 115.995C249.788 120.002 256.836 119.788 262.034 115.479C266.244 111.988 268.691 102.253 266.978 95.835C265.688 90.9678 262.422 86.8303 258.342 84.8934C255.72 83.6419 250.48 83.2979 247.045 84.1581L247.043 84.1609ZM253.312 91.4562C255.632 92.0999 257.437 94.2561 258.209 97.2696C260.528 106.147 256.49 113.04 249.963 111.275C245.966 110.24 243.566 105.672 243.951 100.028C244.252 95.9349 245.667 93.2626 248.158 91.9723C250.267 90.9372 251.081 90.8512 253.315 91.4589L253.312 91.4562Z" fill="#EDEDED"/>
</g>
<path d="M280.81 84.258C276.212 85.4651 273.893 87.9181 273.466 92.1C273.336 93.3931 273.336 94.4698 273.508 94.4698C273.679 94.4698 274.452 93.998 275.227 93.3931C277.505 91.6698 280.082 90.8956 284.076 90.8956C286.828 90.8512 288.073 91.0233 289.147 91.5866C290.65 92.4052 291.81 94.5169 291.81 96.4094C291.81 97.4445 291.724 97.4889 288.718 97.4889C284.635 97.4889 280.555 98.1798 277.978 99.2981C271.49 102.098 270.031 110.109 275.099 115.237C277.632 117.776 281.286 119.031 286.18 119.031C292.236 119.031 296.192 117.088 298.511 112.912L299.757 110.628V102.445C299.757 95.6796 299.627 93.8704 298.985 92.0195C297.911 89.0059 295.375 86.2032 292.585 84.9989C289.792 83.789 284.076 83.445 280.813 84.2636L280.81 84.258ZM292.004 106.208C292.004 108.88 291.918 109.138 290.545 110.52C289.258 111.81 288.826 111.985 286.894 111.985C284.27 111.985 281.95 111.125 281.311 109.921C280.494 108.367 280.752 106.213 281.87 105.137C283.199 103.888 284.923 103.458 288.915 103.413L292.006 103.369V106.208H292.004Z" fill="#EDEDED"/>
<mask id="mask5_1130_155" style="mask-type:luminance" maskUnits="userSpaceOnUse" x="362" y="83" width="34" height="37">
<path d="M362.81 83.1147H395.658V119.344H362.81V83.1147Z" fill="white"/>
</mask>
<g mask="url(#mask5_1130_155)">
<path d="M374.452 84.5189C367.792 86.6278 364.014 92.0584 363.413 100.289C362.596 111.572 369.898 119.675 380.165 118.9C384.162 118.598 385.967 118.043 388.499 116.272C392.449 113.556 394.946 108.691 395.375 102.786C395.846 96.6703 394.215 91.8447 390.346 87.9237C388.331 85.9424 387.425 85.3375 385.02 84.6105C381.455 83.531 377.671 83.4894 374.452 84.5245V84.5189ZM381.283 91.4562C383.135 91.9696 384.588 93.3071 385.748 95.5465C386.526 96.97 386.65 98.0439 386.692 101.576C386.692 106.313 385.92 108.555 383.686 110.32C381.195 112.304 376.857 111.871 374.621 109.46C372.603 107.307 372.088 105.539 372.088 100.93C372.088 97.5694 372.259 96.5344 372.993 95.1164C374.881 91.6255 377.629 90.374 381.28 91.4562H381.283Z" fill="#EDEDED"/>
</g>
<path d="M306.99 95.7878C306.99 104.792 307.117 107.85 307.632 109.532C309.486 115.778 315.557 119.569 322.92 119.011C329.333 118.537 333.034 116.125 335.019 111.125C335.921 108.758 336.007 107.85 336.14 98.4573C336.267 90.7902 336.181 88.0763 335.752 87.3021C334.805 85.5344 333.039 84.5438 330.498 84.3301L328.173 84.1581L327.999 95.2745C327.825 107.295 327.611 108.372 325.372 110.437C322.834 112.809 318.006 111.561 316.285 108.153C315.465 106.602 315.338 105.439 315.164 96.9117C314.95 88.1207 314.865 87.2632 314.09 86.403C312.924 85.0683 310.818 84.2469 308.709 84.2469H306.984V95.7934L306.99 95.7878Z" fill="#EDEDED"/>
</svg>
