<svg width="1366" height="1198" viewBox="0 0 1366 1198" fill="none" xmlns="http://www.w3.org/2000/svg">
<g opacity="0.1">
<mask id="mask0_796_159" style="mask-type:luminance" maskUnits="userSpaceOnUse" x="0" y="0" width="1366" height="1198">
<path d="M0 0H1366V1197.27H0V0Z" fill="white"/>
</mask>
<g mask="url(#mask0_796_159)">
<path d="M732.305 2.98677C546.807 20.0435 367.882 141.484 281.416 308.632C209.285 448.976 193.76 618.6 240.874 759.534C255.169 804.101 281.993 855.94 289.755 855.94C292.138 855.94 330.336 825.403 374.453 788.224C472.255 705.22 527.093 663.128 601.069 611.29C707.249 537.443 753.71 483.758 791.332 391.046C820.538 319.636 857.545 293.422 915.996 302.54C938.015 306.195 1036.43 353.789 1036.43 361.099C1036.43 362.946 1024.52 369.666 1009.61 375.758C943.396 403.819 929.061 439.819 944.587 537.443C963.071 652.753 941.628 734.578 873.032 804.691C790.14 889.463 650.566 923.105 457.345 905.341C283.837 888.874 199.716 932.223 44.6548 1114.62C19.5606 1143.94 -0.0766625 1170.78 1.69107 1173.26C7.07115 1182.41 78.0112 1193.42 116.748 1190.31C186.573 1184.89 242.565 1150.07 308.778 1070.17C326.686 1048.79 348.168 1023.17 356.507 1014.05L371.417 996.952L417.34 1032.95C501.423 1098.23 580.164 1137.89 669.588 1158.6C736.993 1175.06 860.965 1173.26 924.219 1156.16C1167.01 1089.07 1332.76 893.158 1357.81 643.006C1382.26 401.383 1258.21 169.584 1045.31 60.9953C948.776 11.5151 845.555 -8.05685 732.305 2.98677Z" fill="#EDEDED"/>
</g>
</g>
</svg>
